<?xml version="1.0" encoding="utf-8"?>
<!-- Generator: Adobe Illustrator 20.1.0, SVG Export Plug-In . SVG Version: 6.00 Build 0)  -->
<svg version="1.1" id="Layer_1" xmlns="http://www.w3.org/2000/svg" xmlns:xlink="http://www.w3.org/1999/xlink" x="0px" y="0px"
	 viewBox="0 0 612 792" style="enable-background:new 0 0 612 792;" xml:space="preserve">
<style type="text/css">
	.st0{fill:none;stroke:#000000;stroke-miterlimit:10;}
</style>
<path class="st0" d="M85.2,130.2c25,0.1,49.9,0.8,74.9,2.2c13.4,0.7,30.5,4.7,32.4,18c7-6.7,17.9-6.6,27.7-6.1
	c66.8,3.5,133.9,3.1,200.7-1.2"/>
<path class="st0" d="M85.6,167.8c26.7-5.1,54.8-2.8,80.4,6.5c3.4,1.2,6.8,2.6,10.3,2.8c3.2,0.2,6.5-0.5,9.7-1
	c20.1-3.7,40.8-3.1,61.2-2.7c59,1.2,117.9,1.2,176.9-0.2"/>
<path class="st0" d="M92.4,198.1c25.4-2.8,51.7,3,73.7,16.2c48.3-10.3,98.2-12.7,147.3-6.9c8.2,1,16.4,2.2,24.6,1.7
	c6.2-0.4,12.3-1.7,18.4-2.3c6.4-0.6,12.9-0.4,19.3-0.2c19.2,0.6,38.5,1.2,57.7,1.8c-2.2-0.8-4.3-1.6-6.5-2.4"/>
<path class="st0" d="M94.6,236.5c13.9,1.2,27.8,2.5,41.8,3.7c2.6,5.6,5.3,11.3,7.9,16.9c1.5-4.7,7.8-5.5,12.7-5.3
	c92.8,2.7,185.7,0.1,278.1-7.8"/>
<path class="st0" d="M120.7,326.7c0.8-9.1,1.6-18.1,2.4-27.2c0.6-7.2,1.8-15.4,7.7-19.7c4.3-3.1,10.6-3.1,14.9,0s6.3,9,4.8,14.1
	c-0.4,1.2-0.9,2.3-1.9,3c-1.2,0.8-2.9,0.8-4.4,0.6c-6.8-0.6-13.7-1.4-20.5-2.4c8.9,9.9,16.7,20.9,23.2,32.6"/>
<path class="st0" d="M173.8,278c-1.8,5.6,4,10.3,7.4,15.1c2.8,4,4.2,9,3.7,13.8c9.1-6.7,8.2-21.2,16.1-29.4c-4,6-8,12-12,18
	c-1.4,2.1-2.8,4.2-3.7,6.5c-4.2,11.3,4.3,24.7-1,35.5"/>
<path class="st0" d="M247.6,293.1c-3.5-4.3-10.1-0.4-15.2,1.6c-1.7,0.6-3.5,1.1-4.9,2.2c-1.3,1-2.1,2.5-2.8,4
	c-4.9,11.4,0.5,26.2,11.6,31.6c1.8,0.9,3.8,1.5,5.7,0.9c1.4-0.4,2.5-1.5,3.4-2.7c5.9-7.2,6.4-17.3,6.7-26.6c0-0.6,0-1.2,0.1-1.8
	c0.1-5.3-0.2-11.6-4.6-14.6"/>
<path class="st0" d="M277,351.1c-0.8,22-0.2,44.1,1.7,66.1c0.1,1.1-0.1,2.7-1.2,2.8c-1.1,0.2-0.3-2.2,0.1-1.2"/>
<path class="st0" d="M308.8,415.3c-8.4-0.3-15.2-7-19.4-14.3c-4.3-7.2-6-11.6-11.3-18.1c14.9-6.9,29.8-13.9,44.7-20.8"/>
<path class="st0" d="M331,418.8c7.4-21.6,14.8-43.3,22.2-64.9c17,26.9,28.7,57.2,34.2,88.5"/>
<path class="st0" d="M340.3,386.9c9.5,1.7,19.3,2.2,28.9,1.6"/>
<path class="st0" d="M414.2,433.5c0-27.9,0.1-55.9,0.1-83.8c9.3-0.7,18.6-0.3,27.8,1c5.8,0.8,11.9,2.2,16.5,5.8
	c4.6,3.6,7.5,10.2,5.1,15.6c-2.9,6.7-11.3,8.4-18.5,9.3c-8.7,1.1-17.3,2.1-26,3.2c-1,0.1-2.4,0.6-2.2,1.7c0.1,0.4,0.4,0.7,0.6,1
	c15.8,16.4,31.6,32.7,47.4,49.1"/>
<path class="st0" d="M498.9,436.4c0.4-26.2,0.7-52.3,1.1-78.5c0.4,0.5,0.9,1.1,1.3,1.6"/>
<path class="st0" d="M496.5,360.2c15.3-5.9,32.4-2.6,48.5,0.8c1.7,0.4,3.5,0.7,5,1.7c5,3.1,4.9,11,1.2,15.6
	c-3.7,4.6-9.6,6.7-15.2,8.6c-11.1,3.8-22.6,7.6-34.4,6.8c9.8,14.7,21.5,28,34.9,39.5c-0.6,1.1-1.3,2.1-1.9,3.2"/>
<path class="st0" d="M118.5,476.1c83.8-4.5,167.6-9,251.3-13.5c7.4-0.4,15.1-0.7,21.7,2.6c6.6,3.3,11.4,11.5,8.3,18.2
	c51.8-5.8,104.1-7.1,156.2-4"/>
<path class="st0" d="M109.9,528.1c21.3,0.1,42.6,0.2,64,0.3c60.2,0.3,121.1,0.5,179.7-13.1c9-2.1,18.4-4.5,27.3-1.9
	c8.8,2.6,16.2,12.6,12.5,21c57.7-5,115.4-10,173.1-15"/>
<path class="st0" d="M105.6,575.2c82.7,1.3,165.5-2.6,247.7-11.9c6.2-0.7,12.8-1.4,18.4,1.4c6.8,3.4,10.8,11.4,18.1,13.8
	c3.8,1.2,7.8,0.7,11.7,0.1c63.7-8.8,127.4-17.6,191.1-26.5"/>
<path class="st0" d="M102.1,618.4c84,10.5,169.7,7.4,252.8-9.1c6.3,5.1,11.9,11.1,16.5,17.7c74.8-11.2,149.4-23.4,223.8-36.7"/>
</svg>
