<?xml version="1.0" encoding="utf-8"?>
<!-- Generator: Adobe Illustrator 21.0.2, SVG Export Plug-In . SVG Version: 6.00 Build 0)  -->
<svg version="1.1"
	 id="svg2" inkscape:version="0.91 r13725" sodipodi:docname="background.svg" xmlns:cc="http://creativecommons.org/ns#" xmlns:dc="http://purl.org/dc/elements/1.1/" xmlns:inkscape="http://www.inkscape.org/namespaces/inkscape" xmlns:rdf="http://www.w3.org/1999/02/22-rdf-syntax-ns#" xmlns:sodipodi="http://sodipodi.sourceforge.net/DTD/sodipodi-0.dtd" xmlns:svg="http://www.w3.org/2000/svg"
	 xmlns="http://www.w3.org/2000/svg" xmlns:xlink="http://www.w3.org/1999/xlink" x="0px" y="0px" viewBox="0 0 1811.5 2190.6"
	 style="enable-background:new 0 0 1811.5 2190.6;" xml:space="preserve">
<style type="text/css">
	.st0{fill:none;stroke:#000000;stroke-width:6;}
</style>
<sodipodi:namedview  bordercolor="#666666" borderopacity="1.0" fit-margin-bottom="0" fit-margin-left="0" fit-margin-right="0" fit-margin-top="0" id="base" inkscape:current-layer="layer1" inkscape:cx="938.00311" inkscape:cy="287.01871" inkscape:document-units="px" inkscape:pageopacity="0.0" inkscape:pageshadow="2" inkscape:showpageshadow="false" inkscape:window-height="751" inkscape:window-maximized="1" inkscape:window-width="1280" inkscape:window-x="0" inkscape:window-y="1" inkscape:zoom="0.41443936" pagecolor="#ffffff" showborder="true" showgrid="false" units="cm" width="29.7cm">
	</sodipodi:namedview>
<path id="path3030_4_" inkscape:connector-curvature="0" sodipodi:nodetypes="csssscccssssc" class="st0" d="M752.6,1008.9"/>
<path id="path3030_7_" inkscape:connector-curvature="0" sodipodi:nodetypes="csssscccssssc" class="st0" d="M800.7,1032.4"/>
<path id="path3030_5_" inkscape:connector-curvature="0" sodipodi:nodetypes="csssscccssssc" class="st0" d="M779.6,1038.4"/>
<path id="path3030_3_" inkscape:connector-curvature="0" sodipodi:nodetypes="csssscccssssc" class="st0" d="M774.2,1040"/>
<path id="a" inkscape:connector-curvature="0" class="st0" d="M243.6,905c-0.2-17.2-5.8-27.9-0.1-49.3l19.5-9.2
	c14.6,12.7,27.2,33.3,31.9,46.6 M333.5,869.7c-26.4-26.3-62.1-55.2-91.9-89.6c-7.2,2.6-14.2,4.7-20.9,8l0,0c-4,2-7.9,4.3-11.6,7.4
	c0.6,25.1-0.8,72.2-2.9,106.6 M233,809.7c3.9-1.8,7.7-3,11.6-4.4c7.2,6.2,12.1,11.5,17.3,20c-7.6,5.9-20,9.9-31,14.7
	c1.2-11.3-0.5-18-1.7-28.3C230.4,810.9,231.7,810.3,233,809.7L233,809.7z"/>
<path id="d" inkscape:connector-curvature="0" class="st0" d="M403,808c16.5-56.7-35.6-102.6-97.7-71.7c-7,3.5-14.1,7.9-21.2,13.4
	c26.9,34.5,48,66.5,70.6,101.4 M354.6,851.2c0.2,0.4,0.5,0.8,0.7,1.2 M327.3,757.8c38-17.3,72.2,43.6,34.1,66.7
	c-13.3-22.1-25-41.3-43.8-60.5C320.8,761.3,324.1,759.3,327.3,757.8L327.3,757.8z"/>
<path id="e1" inkscape:connector-curvature="0" sodipodi:nodetypes="cccccccccccccc" class="st0" d="M427.8,781.9
	c-18-33.4-55.5-76-79-105.2c11.1-17.5,27.8-34.2,40.9-48c7.4,6.9,14.9,14.3,18.3,18.3c-9.9,6.9-16.6,17-25.4,27.6
	c5,8.3,13.8,18.9,18.9,23.4c8.8-9.9,20.4-19.2,26.7-26.7c6.3,5.5,12.7,12.8,15.8,16.5c-7.8,7.2-17,16-25,23.1
	c2,10.5,15.5,21.2,21.5,26.4c10.3-12.1,16-19.6,21.8-29.3c9.5,6,14.5,13.4,19.3,18.1"/>
<path class="st0" d="M548.1,661c-19.4-28.4-56.5-65.3-79.9-88c-4.1,6.7-8.9,11.4-15.9,17.2c15,17.9,53.6,49.3,67.3,72.2
	c-18.1-15.8-60.6-41.4-85.8-59.6c-1.8,2.1-8.9,10.8-14.2,13.5c22.5,34.3,54.2,68.1,73.6,97.1l-0.1-0.1l14.2-14.2
	c-10.8-15.6-28.4-36.9-34.1-42.8c9.8,5.5,31,21.9,45.6,32.1"/>
<path id="e-2" inkscape:connector-curvature="0" class="st0" d="M1013.9,1005.5c14.6-30.3,33.4-112.6,61.6-151.8
	c15.7,5,30.2,12.5,43,19.3c0.5,13.2-5.4,20.7-10.9,31.3c-8.4-7.1-15.9-7.5-24.9-11.5c-2.2,10-6.3,27.7-7.2,32.4
	c8.5,0.4,14.7,2.9,22.7,4.9c-1.1,11.8-6.7,27.5-9.5,35.7c-6.9-8.1-12.4-9.8-20.6-11.9c-3.7,10.8-6.7,24-9.2,33.1
	c8.6,7.1,16.5,7.8,24.2,9.3c-0.7,11.2-3.2,19.4-6.3,28.3L1013.9,1005.5z"/>
<path id="e-3" inkscape:connector-curvature="0" class="st0" d="M1141.8,1048.1c8.1-41.1,33.5-111.8,49.5-158.2
	c10.8,9.7,22.6,14,33.7,18c7.4,4.7,9.5,4.3,16.4,6c-1.9,10.4-4.1,17.5-7,26.1c-13.3,0.8-20.7-3.5-33.1-5.9
	c-3.2,7.1-4.2,19.9-4.8,22.8c11.4,4,20.4,6.4,29.2,11c-1.3,11.2-3.3,16-6.1,25.7c-10.2-1.7-20.5-4.5-27-4.5
	c-2.5,12.5-6.6,22.9-9.8,34.6c7.3,2.6,11.7,5.1,18.1,7.9c3.2,11.8-3.1,27-6.7,36.5"/>
<path id="s" inkscape:connector-curvature="0" sodipodi:nodetypes="cscccccc" class="st0" d="M1314.1,1106.5
	c54.1-12.2,14.6-72.2-12.1-100.6c-20.8-22.1,24-53.2,36.3-25c2.5-12.7,5.2-28.7,10.7-42.3c-80.6-31.7-103.8,34.4-59.6,96.8
	c25.3,26.9,5.9,37.3-11.8,21.8c-3.4,13.9-12.7,25.9-15.9,35.1"/>
<path id="e-4" inkscape:connector-curvature="0" sodipodi:nodetypes="ccccccccccccc" class="st0" d="M1397.7,1116.4
	c-3.3-44.8,6.4-114.7,1.7-169.9c25.2-0.5,45.6-9.2,69.5-15.5c2.5,15.1,4.3,28.2,6,42.1c-15.6-3.6-32.3,1.9-48.1,6
	c-3.9,10.7-0.6,33-0.1,37c18-1.9,34.5-7,52.2-13.8c-0.9,11.7-1.6,32.2-1.5,36.3c-14.7,7.2-30.7,5.5-46.4,7.9
	c-3.2,13.7-0.9,26.2,0.6,39.2c15.6,6,30.8-2,45.5-3.8c1.2,7.9,2.1,17.4,2.6,25.8"/>
<path id="main" inkscape:connector-curvature="0" class="st0" d="M355.5,852c-37.2,31.6-73.4,52.7-109.6,52.7
	c-272.8,0-111.5-364.1-47.6-220.2l0,0l0,0c57.4,96.1,137.2-90.5-9.5-106c-208.6-22.2-254.7,304.2-82.9,402.3
	c240.8,137.6,416.3-200.7,622.7-242c152.3-30.5,171.8,50,136.9,145.8c-17.4,47.6-43.3,79.3-79.5,104.2l1.1-0.8
	c-8.7-23.2-17.9-47.7-28.2-67.3c-11.7-22.3-21.7-50.1-38.3-69l0,0c-110.4-14.1-92.3,134.8-11.2,70.4c5.2,14.1,11.2,27.6,15,41.9
	c9.6,21.7,15.2,50.1,24,72c7.2,32.5,15.5,69.2,19.8,94.9c4.2,29.5,10.1,60.6,3.5,86.2c23-5.7,44.3-5.1,65.4-10.8
	c-1.5-29.3-6.2-57.8-9.3-76.5c-4.3-16.8-8.7-33.5-13-50.3l-4.8-16.7l0,0c11.7-12.6,27.5-22.7,45.7-29.1
	c23.1-11.2,50.3-10.1,67.4-10.4c38.3,0.9,82.1,12.8,110.9,19.2l97.3,32.5l121,45.9l106.6,39l47.2,14.3l32.3,9.7l1.9-0.7l-0.6,0.2
	l0.6-0.2c68,17.8,141.1,21.4,214.8-13.2c53.1-19.4,101.5-46.8,125.2-87.8c28.9-44.8,41-103,21.1-159.4
	c-5.7-22.2-21.3-47.9-35.1-65.7c-13.2-18.4-31-32.2-46.7-44.7c-19.5-11.9-43.1-24.3-65.5-26.1c-33.6-8.8-63.6-5.3-93.1,13.2
	c-20.4,13.4-35.2,37.6-41.8,54.9c-8.8,22.6-5.9,43-2.6,66.3c28.6-24.8,49.3-16.2,61.4-3.4c43.7,53.4,11.2,141.8-41.7,166.7
	c-61.1,38.1-133.5,34-189.4,29.6c-42.2-9-80.3-17.9-117.6-32.3l-124.4-47.5l-74.7-24.3l-49.1-9.4l-30.9-3.9l-0.6,0.2l0.6-0.2
	l-0.6,0.2c-18.3-2.2-40-1.9-62.4,1.6l0,0c7.6-0.9,14-8.7,20.5-13.7c37-29,90.8-82.9,107.6-120.9c77.7-177.5-127.1-317.4-291-296.9
	c-147.9,18.5-262.6,195.4-369,285.9"/>
<path class="st0" d="M143.7,260.7l626.8,8.5c52.3,0.7,87.9,53.3,69.2,102.1l-9.4,24.4c-16.1,41.9,14.3,87,59.2,87.8l813.6,14.6
	l-801.8-48c-25.7-1.5-42.5-27.6-33.2-51.6l16.1-41.9c24.1-62.7-22.7-129.9-89.8-129.1l-640.7,7.3l651.9-50.7
	c84.2-6.6,147,76.2,118.1,155.5l-8.9,24.3c-9.3,25.5,8.4,52.8,35.4,54.7l762,55.6L991.4,373.9c-23.1-3.2-37.2-27.1-28.8-48.9l0,0
	C999,230,923,129.8,821.6,139.3l-655,61.7l672.4-96.2c112.3-16.1,200.1,95,158.7,200.5l0,0c-5.1,13.1,3.3,27.6,17.2,29.5l712.5,99.6
	"/>
<path class="st0" d="M71.4,1462.4l626.8,8.5c52.3,0.7,87.9,53.3,69.2,102.1l-9.4,24.4c-16.1,41.9,14.3,87,59.2,87.8l813.6,14.6
	l-801.8-48c-25.7-1.5-42.5-27.6-33.2-51.6l16.1-41.9c24.1-62.7-22.7-129.9-89.8-129.1l-640.7,7.3l651.9-50.7
	c84.2-6.6,147,76.2,118.1,155.5l-8.9,24.3c-9.3,25.5,8.4,52.8,35.4,54.7l762,55.6l-720.9-100.3c-23.1-3.2-37.2-27.1-28.8-48.9l0,0
	c36.5-95-39.6-195.3-140.9-185.7l-655,61.7l672.4-96.2c112.3-16.1,200.1,95,158.7,200.5l0,0c-5.1,13.1,3.3,27.6,17.2,29.5
	l712.5,99.6"/>
</svg>
